HIERARCHY
ROOT Hips
{
	OFFSET 0.000000 71.427986 0.000000
	CHANNELS 6 Xposition Yposition Zposition Xrotation Yrotation Zrotation
	JOINT Pelvis
	{
		OFFSET 0.000000 0.000000 0.000000
		CHANNELS 3 Xrotation Yrotation Zrotation
		JOINT LeftUpLeg
		{
			OFFSET 6.797100 -2.508499 -1.318700
			CHANNELS 3 Xrotation Yrotation Zrotation
			JOINT LeftLeg
			{
				OFFSET 0.069008 -29.241863 0.690200
				CHANNELS 3 Xrotation Yrotation Zrotation
				JOINT LeftFoot
				{
					OFFSET -0.069008 -29.568123 -0.266800
					CHANNELS 3 Xrotation Yrotation Zrotation
					JOINT LeftToeBase
					{
						OFFSET 3.145500 -8.631000 16.059900
						CHANNELS 3 Xrotation Yrotation Zrotation
						End Site
						{
							OFFSET 0.000000 18.501587 0.000000
						}
					}
				}
			}
			JOINT Left_ShortSleeve
			{
				OFFSET 0.265923 -10.480953 1.153800
				CHANNELS 3 Xrotation Yrotation Zrotation
				End Site
				{
					OFFSET 1.725763 19.823879 0.000000
				}
			}
		}
		JOINT RightUpLeg
		{
			OFFSET -6.797100 -2.508499 -1.318700
			CHANNELS 3 Xrotation Yrotation Zrotation
			JOINT RightLeg
			{
				OFFSET -0.082453 -29.241932 0.688000
				CHANNELS 3 Xrotation Yrotation Zrotation
				JOINT RightFoot
				{
					OFFSET 0.082453 -29.568058 -0.264600
					CHANNELS 3 Xrotation Yrotation Zrotation
					JOINT RightToeBase
					{
						OFFSET -3.115300 -8.682800 16.113400
						CHANNELS 3 Xrotation Yrotation Zrotation
						End Site
						{
							OFFSET 0.000000 18.567114 0.000000
						}
					}
				}
			}
			JOINT Right_ShortSleeve
			{
				OFFSET -0.265923 -10.480953 1.153800
				CHANNELS 3 Xrotation Yrotation Zrotation
				End Site
				{
					OFFSET -1.725766 19.823910 0.000000
				}
			}
		}
	}
	JOINT Spine
	{
		OFFSET 0.000000 13.368103 0.470500
		CHANNELS 3 Xrotation Yrotation Zrotation
		JOINT Spine1
		{
			OFFSET 0.147000 13.837402 0.538800
			CHANNELS 3 Xrotation Yrotation Zrotation
			JOINT Spine2
			{
				OFFSET 0.168000 16.242897 -1.435500
				CHANNELS 3 Xrotation Yrotation Zrotation
				JOINT Neck
				{
					OFFSET 0.217200 18.631500 -1.679100
					CHANNELS 3 Xrotation Yrotation Zrotation
					JOINT Head
					{
						OFFSET 0.000000 6.599396 1.385900
						CHANNELS 3 Xrotation Yrotation Zrotation
						JOINT Hat
						{
							OFFSET -0.532200 27.220596 -10.096100
							CHANNELS 3 Xrotation Yrotation Zrotation
							End Site
							{
								OFFSET 0.000000 22.029861 0.000000
							}
						}
						JOINT HairD
						{
							OFFSET -10.777400 17.437393 -1.325900
							CHANNELS 3 Xrotation Yrotation Zrotation
							JOINT HairD1
							{
								OFFSET -3.290299 -11.051193 1.062200
								CHANNELS 3 Xrotation Yrotation Zrotation
								End Site
								{
									OFFSET 0.000000 11.579437 0.000000
								}
							}
						}
						JOINT HairB
						{
							OFFSET -10.777400 17.437393 1.467900
							CHANNELS 3 Xrotation Yrotation Zrotation
							JOINT HairB1
							{
								OFFSET -1.561200 -12.956299 3.590200
								CHANNELS 3 Xrotation Yrotation Zrotation
								End Site
								{
									OFFSET 0.000000 13.534866 0.000000
								}
							}
						}
						JOINT HairA
						{
							OFFSET 9.713100 17.437393 1.467900
							CHANNELS 3 Xrotation Yrotation Zrotation
							JOINT HairA1
							{
								OFFSET 1.561200 -12.956299 3.590200
								CHANNELS 3 Xrotation Yrotation Zrotation
								End Site
								{
									OFFSET 0.000000 13.534866 0.000000
								}
							}
						}
						JOINT HairC
						{
							OFFSET 9.713100 17.437393 -1.325900
							CHANNELS 3 Xrotation Yrotation Zrotation
							JOINT HairC1
							{
								OFFSET 3.290300 -11.051193 1.062200
								CHANNELS 3 Xrotation Yrotation Zrotation
								End Site
								{
									OFFSET 0.000000 11.579437 0.000000
								}
							}
						}
					}
				}
				JOINT LeftShoulder
				{
					OFFSET 5.101800 15.108002 -2.763700
					CHANNELS 3 Xrotation Yrotation Zrotation
					JOINT LeftArm
					{
						OFFSET 9.825497 2.506317 -1.597400
						CHANNELS 3 Xrotation Yrotation Zrotation
						JOINT LeftForeArm
						{
							OFFSET 21.966244 0.000000 0.000000
							CHANNELS 3 Xrotation Yrotation Zrotation
							JOINT LeftHand
							{
								OFFSET 33.879036 0.000000 0.000000
								CHANNELS 3 Xrotation Yrotation Zrotation
								JOINT LeftHandThumb1
								{
									OFFSET 6.715286 -2.359680 3.363841
									CHANNELS 3 Xrotation Yrotation Zrotation
									JOINT LeftHandThumb2
									{
										OFFSET 2.507072 -1.447464 1.447461
										CHANNELS 3 Xrotation Yrotation Zrotation
										JOINT LeftHandThumb3
										{
											OFFSET 2.898338 -1.673355 1.673357
											CHANNELS 3 Xrotation Yrotation Zrotation
											End Site
											{
												OFFSET -0.295959 3.727692 -0.131651
											}
										}
									}
								}
								JOINT LeftHandIndex1
								{
									OFFSET 14.190811 -0.254547 3.840278
									CHANNELS 3 Xrotation Yrotation Zrotation
									JOINT LeftHandIndex2
									{
										OFFSET 3.551727 0.000000 -0.000000
										CHANNELS 3 Xrotation Yrotation Zrotation
										JOINT LeftHandIndex3
										{
											OFFSET 2.894196 0.000000 0.000000
											CHANNELS 3 Xrotation Yrotation Zrotation
											End Site
											{
												OFFSET -1.000603 2.690872 0.366626
											}
										}
									}
								}
								JOINT LeftHandMiddle1
								{
									OFFSET 13.776489 0.000000 0.000000
									CHANNELS 3 Xrotation Yrotation Zrotation
									JOINT LeftHandMiddle2
									{
										OFFSET 3.438232 0.000000 0.000000
										CHANNELS 3 Xrotation Yrotation Zrotation
										JOINT LeftHandMiddle3
										{
											OFFSET 3.691551 0.000000 0.000000
											CHANNELS 3 Xrotation Yrotation Zrotation
											End Site
											{
												OFFSET -1.082298 3.499527 0.457670
											}
										}
									}
								}
								JOINT LeftHandRing1
								{
									OFFSET 13.966164 -0.268127 -3.067488
									CHANNELS 3 Xrotation Yrotation Zrotation
									JOINT LeftHandRing2
									{
										OFFSET 3.162567 0.000000 0.000000
										CHANNELS 3 Xrotation Yrotation Zrotation
										JOINT LeftHandRing3
										{
											OFFSET 3.324348 0.000000 0.000000
											CHANNELS 3 Xrotation Yrotation Zrotation
											End Site
											{
												OFFSET -0.861900 3.184998 0.405154
											}
										}
									}
								}
								JOINT LeftHandPinky1
								{
									OFFSET 13.131393 -0.168503 -5.746925
									CHANNELS 3 Xrotation Yrotation Zrotation
									JOINT LeftHandPinky2
									{
										OFFSET 2.849182 0.000000 0.000000
										CHANNELS 3 Xrotation Yrotation Zrotation
										JOINT LeftHandPinky3
										{
											OFFSET 2.805038 0.000000 0.000000
											CHANNELS 3 Xrotation Yrotation Zrotation
											End Site
											{
												OFFSET -0.882500 2.642609 0.325652
											}
										}
									}
								}
							}
							JOINT Left_Sleeve
							{
								OFFSET 6.592125 -0.646545 0.805568
								CHANNELS 3 Xrotation Yrotation Zrotation
								End Site
								{
									OFFSET -0.000179 20.275787 -0.000000
								}
							}
						}
					}
				}
				JOINT RightShoulder
				{
					OFFSET -5.731700 15.108002 -2.763700
					CHANNELS 3 Xrotation Yrotation Zrotation
					JOINT RightArm
					{
						OFFSET -9.825497 2.506317 -1.597400
						CHANNELS 3 Xrotation Yrotation Zrotation
						JOINT RightForeArm
						{
							OFFSET -21.966242 0.000000 0.000000
							CHANNELS 3 Xrotation Yrotation Zrotation
							JOINT RightHand
							{
								OFFSET -33.879032 0.000000 0.000000
								CHANNELS 3 Xrotation Yrotation Zrotation
								JOINT RightHandThumb1
								{
									OFFSET -6.715286 -2.359680 3.363841
									CHANNELS 3 Xrotation Yrotation Zrotation
									JOINT RightHandThumb2
									{
										OFFSET -2.507072 -1.447464 1.447461
										CHANNELS 3 Xrotation Yrotation Zrotation
										JOINT RightHandThumb3
										{
											OFFSET -2.898338 -1.673355 1.673357
											CHANNELS 3 Xrotation Yrotation Zrotation
											End Site
											{
												OFFSET 0.295959 3.727692 -0.131651
											}
										}
									}
								}
								JOINT RightHandIndex1
								{
									OFFSET -14.190811 -0.254547 3.840278
									CHANNELS 3 Xrotation Yrotation Zrotation
									JOINT RightHandIndex2
									{
										OFFSET -3.551727 0.000000 -0.000000
										CHANNELS 3 Xrotation Yrotation Zrotation
										JOINT RightHandIndex3
										{
											OFFSET -2.894196 0.000000 0.000000
											CHANNELS 3 Xrotation Yrotation Zrotation
											End Site
											{
												OFFSET 1.000603 2.690872 0.366626
											}
										}
									}
								}
								JOINT RightHandMiddle1
								{
									OFFSET -13.776489 0.000000 0.000000
									CHANNELS 3 Xrotation Yrotation Zrotation
									JOINT RightHandMiddle2
									{
										OFFSET -3.438232 0.000000 0.000000
										CHANNELS 3 Xrotation Yrotation Zrotation
										JOINT RightHandMiddle3
										{
											OFFSET -3.691551 0.000000 0.000000
											CHANNELS 3 Xrotation Yrotation Zrotation
											End Site
											{
												OFFSET 1.082298 3.499527 0.457670
											}
										}
									}
								}
								JOINT RightHandRing1
								{
									OFFSET -13.966164 -0.268127 -3.067488
									CHANNELS 3 Xrotation Yrotation Zrotation
									JOINT RightHandRing2
									{
										OFFSET -3.162567 0.000000 0.000000
										CHANNELS 3 Xrotation Yrotation Zrotation
										JOINT RightHandRing3
										{
											OFFSET -3.324348 0.000000 0.000000
											CHANNELS 3 Xrotation Yrotation Zrotation
											End Site
											{
												OFFSET 0.861900 3.184998 0.405154
											}
										}
									}
								}
								JOINT RightHandPinky1
								{
									OFFSET -13.131393 -0.168503 -5.746925
									CHANNELS 3 Xrotation Yrotation Zrotation
									JOINT RightHandPinky2
									{
										OFFSET -2.849182 0.000000 0.000000
										CHANNELS 3 Xrotation Yrotation Zrotation
										JOINT RightHandPinky3
										{
											OFFSET -2.805038 0.000000 0.000000
											CHANNELS 3 Xrotation Yrotation Zrotation
											End Site
											{
												OFFSET 0.882500 2.642609 0.325652
											}
										}
									}
								}
							}
							JOINT Right_Sleeve
							{
								OFFSET -6.592125 -0.646545 0.805568
								CHANNELS 3 Xrotation Yrotation Zrotation
								End Site
								{
									OFFSET 0.000179 20.275787 -0.000000
								}
							}
						}
					}
				}
				JOINT Bind_Right_JacketString
				{
					OFFSET -3.534800 11.969597 7.200700
					CHANNELS 3 Xrotation Yrotation Zrotation
					JOINT Bind_Right_JacketString1
					{
						OFFSET -0.319900 -6.102600 2.794100
						CHANNELS 3 Xrotation Yrotation Zrotation
						End Site
						{
							OFFSET 0.000000 6.719452 0.000000
						}
					}
				}
				JOINT Bind_Left_JacketString
				{
					OFFSET 2.904800 11.969597 7.200700
					CHANNELS 3 Xrotation Yrotation Zrotation
					JOINT Bind_Left_JacketString1
					{
						OFFSET 0.364800 -5.904503 3.186800
						CHANNELS 3 Xrotation Yrotation Zrotation
						End Site
						{
							OFFSET 0.000000 6.719513 0.000000
						}
					}
				}
				JOINT HairE
				{
					OFFSET 5.915200 17.612701 -11.592200
					CHANNELS 3 Xrotation Yrotation Zrotation
					JOINT HairE1
					{
						OFFSET 0.289200 -7.171898 -1.284500
						CHANNELS 3 Xrotation Yrotation Zrotation
						End Site
						{
							OFFSET 0.000000 7.291756 0.000000
						}
					}
				}
				JOINT HairF
				{
					OFFSET -0.864800 17.612701 -11.592200
					CHANNELS 3 Xrotation Yrotation Zrotation
					JOINT HairF1
					{
						OFFSET 0.000000 -14.087097 -2.127501
						CHANNELS 3 Xrotation Yrotation Zrotation
						End Site
						{
							OFFSET 0.000000 14.246841 0.000000
						}
					}
				}
				JOINT HairG
				{
					OFFSET -8.087700 17.612701 -11.592200
					CHANNELS 3 Xrotation Yrotation Zrotation
					JOINT HairG1
					{
						OFFSET -0.293600 -6.081398 -0.910100
						CHANNELS 3 Xrotation Yrotation Zrotation
						End Site
						{
							OFFSET 0.000000 6.156120 0.000000
						}
					}
				}
			}
		}
	}
	JOINT Pouch
	{
		OFFSET 0.000000 4.394501 10.847300
		CHANNELS 3 Xrotation Yrotation Zrotation
		End Site
		{
			OFFSET 0.000000 21.880577 0.000000
		}
	}
	JOINT Bag
	{
		OFFSET -13.229000 4.813004 -0.593300
		CHANNELS 3 Xrotation Yrotation Zrotation
		End Site
		{
			OFFSET 0.000000 21.880577 0.000000
		}
	}
	JOINT OccupyGuyFacialAnim_Joint
	{
		OFFSET 1.000000 -70.206398 -1.655000
		CHANNELS 3 Xrotation Yrotation Zrotation
		End Site
		{
			OFFSET 0.000000 21.880577 0.000000
		}
	}
}
MOTION
Frames: 4
Frame Time: 0.016667
6.517693 58.640251 -3.446383 43.878665 -82.071778 44.505198 0.000000 -0.000000 0.000000 -27.367161 -9.069928 23.694865 53.123354 -6.948373 10.149600 -32.733176 -0.721298 -20.645010 0.000000 -0.000000 -0.000000 -0.000001 0.000000 -0.000000 -19.100259 5.626453 -25.957442 49.742977 4.521382 -9.932156 -39.552389 2.122043 22.888302 0.000000 0.000001 0.000001 -0.000000 -0.000001 -0.000002 1.320953 4.409613 3.200192 1.685963 3.692189 0.960058 1.613182 3.756749 0.980633 -3.532984 9.176836 -1.132676 -3.451489 43.959781 -1.786095 0.000001 -0.000000 -0.000000 0.000001 -0.000000 -0.000000 0.000001 -0.000000 0.000000 0.000001 -0.000000 -0.000000 0.000000 -0.000000 0.000000 0.000001 -0.000000 -0.000000 0.000000 -0.000000 0.000000 0.000001 -0.000000 -0.000000 0.000001 -0.000000 -0.000000 0.705581 8.677184 -8.120512 -7.703518 12.546978 -67.827795 0.000002 -117.532475 0.000006 -2.759510 -37.106177 22.103092 -9.674869 0.269250 1.575496 21.035316 31.264720 -3.204858 -0.000000 -0.000001 -0.000001 -2.849075 3.303466 -72.216341 3.992233 5.548902 -71.446688 -0.000000 0.000003 0.000002 -2.178467 6.191037 -74.467818 5.106533 5.803649 -82.676920 0.000003 0.000002 0.000001 -2.999885 7.957841 -88.252895 5.714703 5.849492 -88.662337 0.000003 0.000001 0.000001 0.216286 8.542534 -93.244288 6.059374 5.847373 -92.043786 0.000000 -0.000001 0.000003 0.000001 -0.000001 0.000001 0.563282 13.344027 9.556957 -10.871297 35.898627 46.529427 0.000243 101.265170 -0.000231 18.782684 12.790202 -36.872407 -6.752282 7.209116 -18.581255 21.136560 -37.182505 16.258978 -0.000000 -0.000001 -0.000000 -3.537838 10.196863 38.911468 4.634909 -4.657099 89.726180 -0.000000 -0.000002 0.000002 -5.052435 -1.676073 58.106345 3.618995 -4.540226 77.105746 -0.000000 0.000004 -0.000004 -3.873869 -2.931512 61.582679 4.483713 -4.653942 87.863007 -0.000003 -0.000005 -0.000001 -1.856270 -4.598487 67.393927 2.939836 -4.329606 68.339738 -0.000004 -0.000001 -0.000001 0.000000 0.000002 -0.000002 -0.000000 0.000000 -0.000001 0.000001 -0.000002 -0.000001 -0.000000 0.000000 -0.000001 -0.000000 0.000000 -0.000001 -0.000000 0.000000 -0.000001 0.000001 -0.000002 -0.000001 -0.000000 0.000000 -0.000001 -0.000000 0.000000 -0.000001 -0.000000 0.000000 -0.000001 0.000001 -0.000002 -0.000001 0.000000 -0.000000 0.000000 0.000000 -0.000000 0.000000 0.000000 -0.000000 0.000000 
6.260791 58.903587 -3.364677 34.145581 -81.453428 34.604365 -0.000001 -0.000000 -0.000000 -26.642153 -8.827572 23.778767 51.876390 -6.989000 10.150797 -32.748927 -1.943946 -20.519751 0.000000 -0.000000 -0.000000 -0.000001 0.000000 -0.000001 -17.934239 4.942286 -25.919453 49.826179 4.534705 -10.012723 -38.173671 1.853987 23.515530 -0.000000 -0.000002 0.000000 0.000000 -0.000000 -0.000000 1.316034 4.225054 3.434641 1.674578 3.524484 1.048239 1.609792 3.584459 1.064620 -2.945500 8.978264 -1.211498 -3.441615 42.960415 -1.394686 -0.000000 0.000002 -0.000000 -0.000000 0.000002 -0.000000 -0.000000 0.000002 -0.000000 -0.000000 0.000002 -0.000000 -0.000000 0.000004 0.000000 -0.000000 0.000002 -0.000000 -0.000000 0.000004 0.000000 -0.000000 0.000002 -0.000000 -0.000000 0.000002 -0.000000 0.654795 7.533290 -7.402833 -5.403850 12.550876 -68.677757 0.000003 -118.249726 -0.000002 -3.995481 -36.802395 21.789492 -9.674864 0.269254 1.575496 21.019303 31.210286 -3.199431 0.000000 0.000002 0.000004 -2.853311 3.302271 -72.160914 3.986850 5.547113 -71.391138 0.000001 0.000001 -0.000003 -2.182398 6.183226 -74.413162 5.100821 5.802908 -82.620495 0.000003 0.000004 -0.000000 -3.005568 7.949361 -88.198376 5.708908 5.849352 -88.605435 -0.000001 0.000004 0.000001 0.210134 8.537071 -93.188970 6.053643 5.847578 -91.987547 -0.000003 -0.000000 0.000003 0.000002 -0.000000 -0.000001 0.654561 13.133323 8.324376 -11.309122 35.091364 48.626859 0.000378 101.896321 -0.000354 19.025813 12.710599 -36.950009 -6.752281 7.209121 -18.581251 21.103587 -37.132088 16.238852 0.000000 0.000004 -0.000001 -3.540178 10.198992 38.856495 4.630408 -4.657053 89.670644 0.000000 -0.000002 0.000002 -5.052150 -1.666609 58.052455 3.614512 -4.539187 77.048967 0.000001 -0.000000 -0.000004 -3.874711 -2.923195 61.528379 4.479137 -4.653784 87.806617 -0.000001 -0.000001 -0.000003 -1.858662 -4.592110 67.339047 2.935610 -4.327951 68.283792 -0.000001 -0.000001 -0.000001 0.000000 0.000004 0.000001 -0.000001 -0.000002 0.000000 -0.000000 -0.000001 -0.000000 -0.000001 -0.000002 0.000001 -0.000001 -0.000002 0.000001 -0.000001 -0.000002 0.000000 -0.000000 -0.000001 -0.000001 -0.000001 -0.000002 0.000001 -0.000001 -0.000002 0.000001 -0.000001 -0.000002 0.000000 -0.000000 -0.000001 -0.000001 -0.000001 -0.000000 -0.000000 -0.000001 -0.000000 -0.000000 -0.000001 -0.000000 -0.000000 
5.924259 59.759964 -3.231972 23.928198 -79.856632 24.313173 0.000000 -0.000001 -0.000000 -26.443526 -7.914652 23.738889 49.451973 -7.058694 10.218363 -30.716512 -5.213615 -21.163824 0.000000 -0.000000 0.000000 -0.000001 0.000001 0.000000 -16.134782 3.461897 -25.757700 48.691660 4.643698 -10.305944 -34.935902 1.386957 24.312946 -0.000000 0.000001 0.000000 -0.000001 0.000000 -0.000003 1.191006 4.184977 3.670036 1.555127 3.451230 1.016179 1.491295 3.510717 1.023371 -2.505828 8.602221 -1.279740 -2.965685 40.944669 -0.795751 -0.000000 -0.000001 -0.000000 -0.000000 -0.000001 -0.000000 -0.000000 -0.000001 -0.000000 -0.000000 -0.000001 -0.000000 -0.000000 -0.000001 -0.000000 -0.000000 -0.000001 -0.000000 -0.000000 -0.000001 -0.000000 -0.000000 -0.000001 -0.000000 -0.000000 -0.000001 -0.000000 0.633905 7.205952 -6.991781 -4.027038 9.964014 -67.472051 -0.000037 -118.092987 -0.000032 -4.207153 -36.031707 21.229112 -9.674862 0.269251 1.575493 20.999833 31.142446 -3.192808 0.000002 0.000002 -0.000001 -2.859070 3.300613 -72.091909 3.980174 5.544860 -71.321976 -0.000004 0.000004 -0.000003 -2.187307 6.173460 -74.345086 5.093723 5.802008 -82.550274 0.000003 -0.000001 0.000002 -3.012990 7.938769 -88.130477 5.701695 5.849177 -88.534538 0.000003 0.000004 -0.000000 0.202180 8.530269 -93.120074 6.046500 5.847817 -91.917551 0.000001 0.000001 0.000001 -0.000002 0.000000 -0.000002 0.703596 12.600988 7.607050 -10.772640 34.147565 49.737666 0.000041 103.261054 -0.000043 18.710991 12.211383 -37.120651 -6.752285 7.209119 -18.581251 21.063303 -37.069076 16.214061 0.000000 -0.000001 0.000002 -3.543117 10.201690 38.788101 4.624812 -4.657039 89.601529 -0.000002 -0.000002 -0.000000 -5.052086 -1.654631 57.985410 3.608924 -4.537914 76.978288 -0.000000 0.000000 -0.000004 -3.875776 -2.912819 61.460774 4.473425 -4.653567 87.736382 -0.000001 -0.000004 -0.000003 -1.861639 -4.584174 67.270738 2.930374 -4.325852 68.214137 0.000001 -0.000002 -0.000001 0.000001 0.000000 -0.000002 0.000001 -0.000001 0.000000 0.000001 0.000001 -0.000000 0.000001 -0.000001 0.000001 0.000001 -0.000001 0.000001 0.000001 -0.000001 0.000000 0.000001 0.000001 -0.000000 0.000001 -0.000001 0.000001 0.000001 -0.000001 0.000001 0.000001 -0.000001 0.000000 0.000001 0.000001 -0.000000 0.000000 -0.000001 -0.000000 0.000000 -0.000001 -0.000000 0.000000 -0.000001 -0.000000 
5.584466 61.018875 -3.111574 16.175799 -77.431095 16.553102 0.000000 -0.000000 0.000000 -26.596019 -6.557899 23.427899 46.196678 -7.000106 10.436291 -27.221524 -9.699760 -21.831996 0.000001 0.000000 0.000001 0.000002 0.000000 0.000001 -14.454046 1.737097 -25.485113 47.418298 4.622357 -10.559819 -30.074283 0.893343 25.084032 0.000001 0.000000 0.000000 0.000000 0.000000 -0.000001 0.984674 4.237710 3.848769 1.364927 3.425535 0.933035 1.299354 3.484986 0.928858 -2.094438 8.124937 -1.381035 -2.236920 38.340779 -0.194033 0.000000 0.000002 -0.000001 0.000000 0.000002 -0.000001 0.000000 0.000002 -0.000001 0.000000 0.000002 -0.000001 0.000001 0.000002 -0.000000 0.000000 0.000002 -0.000001 0.000001 0.000002 -0.000000 0.000000 0.000002 -0.000001 0.000000 0.000002 -0.000001 0.623446 7.184073 -6.717689 -3.255306 6.222750 -65.186287 0.000008 -117.506356 0.000006 -3.863546 -34.828548 20.605574 -9.674863 0.269254 1.575495 20.976997 31.061713 -3.185072 0.000002 0.000001 0.000004 -2.866252 3.298552 -72.009885 3.972234 5.542183 -71.239693 0.000003 -0.000000 -0.000002 -2.193121 6.161885 -74.264135 5.085294 5.800906 -82.466755 0.000001 0.000001 -0.000001 -3.022147 7.926163 -88.049731 5.693096 5.848948 -88.450246 -0.000004 0.000003 -0.000001 0.192406 8.522222 -93.038112 6.038032 5.848098 -91.834250 -0.000000 0.000001 -0.000000 -0.000001 0.000002 -0.000003 0.732048 11.989987 7.098536 -9.801474 33.018924 50.192724 0.000069 104.960070 -0.000073 18.245360 11.392866 -37.011296 -6.752283 7.209121 -18.581251 21.015918 -36.993879 16.184920 0.000000 0.000002 -0.000000 -3.546610 10.204929 38.706750 4.618142 -4.657007 89.519328 -0.000000 -0.000001 -0.000002 -5.052279 -1.640208 57.905702 3.602274 -4.536385 76.894188 0.000000 0.000001 -0.000004 -3.877033 -2.900470 61.380390 4.466666 -4.653284 87.652835 -0.000002 -0.000002 -0.000001 -1.865169 -4.574725 67.189486 2.924129 -4.323368 68.131315 -0.000002 -0.000001 0.000002 -0.000001 -0.000001 0.000001 -0.000000 0.000000 0.000000 -0.000000 -0.000002 -0.000000 -0.000000 0.000000 0.000000 -0.000000 0.000000 0.000000 -0.000000 0.000000 0.000000 -0.000000 -0.000002 -0.000000 -0.000000 0.000000 0.000000 -0.000000 0.000000 0.000000 -0.000000 0.000000 0.000000 -0.000000 -0.000002 -0.000000 0.000000 -0.000000 0.000000 0.000000 -0.000000 0.000000 0.000000 -0.000000 0.000000 
